<svg width="118" height="52" viewBox="0 0 118 52" fill="none" xmlns="http://www.w3.org/2000/svg">
<path d="M59.3603 5.67438C60.1629 5.71438 60.9296 6.04106 61.5368 6.60183C62.3643 7.43654 62.5812 8.82839 62.1895 9.94201C60.6671 13.2815 57.0462 15.5121 54.572 16.25C53.0918 16.621 51.2205 16.621 49.8709 16.0645C49.2175 16.4819 48.6662 17.8307 47.8684 17.2702C46.7136 16.3092 47.7133 14.8051 47.0466 13.7378C46.9091 13.5181 46.5629 13.502 46.3888 13.1424C45.4743 11.0086 46.6064 8.96751 47.8684 7.34447C49.9724 4.84304 56.0088 2.05597 59.3603 5.67438ZM52.352 7.3438C51.1764 7.57566 49.8488 8.12071 49.1311 9.01389C48.4127 9.90639 47.9561 10.7767 48.3913 11.7042C49.915 10.4985 50.6548 8.8284 52.3526 7.8082C52.352 7.62204 52.6131 7.48292 52.352 7.3438ZM59.4479 7.8082C56.4439 7.52929 54.1804 9.94201 52.0474 12.2606C51.9168 12.6316 51.1335 13.049 51.7428 13.4663C54.6162 13.7446 57.3584 12.8642 59.4479 10.8224C60.0578 10.2196 60.4917 9.43124 60.1884 8.59586C60.0578 8.27192 59.7507 7.94732 59.4479 7.8082ZM85.4772 21.6306C86.8704 25.249 88.0454 30.9535 85.4772 34.4328C84.781 35.2675 83.5625 36.037 82.7791 35.4066C79.9057 32.9489 78.6878 29.4232 76.903 26.2685C76.6419 26.1294 76.6419 26.5011 76.5113 26.6402C75.8586 29.8406 77.077 34.0155 75.0317 36.5196C74.2484 36.6587 73.5155 36.2292 73.2468 35.4066C72.2453 32.1135 73.2891 28.6806 73.5502 25.3875C74.1601 23.7174 74.4212 21.7697 75.7709 20.517C77.9474 21.4444 78.9918 24.0427 80.2532 25.9446C81.1684 27.3822 81.9075 29.0059 82.952 30.3043C83.8658 29.8869 83.4161 28.6141 83.3878 27.8459C83.0384 24.831 82.255 22.048 81.5146 19.1722C81.4723 18.4302 81.0807 17.1775 81.8192 16.7138C83.7807 17.6419 84.6063 19.8214 85.4772 21.6306ZM72.3317 20.517C72.3317 21.2132 71.8095 22.0829 71.3731 22.1871C67.1947 22.8827 62.5371 22.4653 58.6198 23.8565C58.4893 24.3666 59.055 24.4593 59.3596 24.5984C62.7105 25.1549 66.2373 25.294 69.5024 26.1758C71.2286 26.6429 71.8537 28.8204 71.9842 30.6289C72.0643 32.055 71.5497 33.7829 70.2429 34.7574C67.0226 36.9376 62.1038 36.8442 58.838 34.8508C57.5899 34.1048 56.4004 32.9032 56.3134 31.4186C56.321 30.2398 56.7927 29.3117 57.576 28.8674C60.7106 27.5219 64.5843 28.2653 67.2837 29.9804C67.4565 30.9085 66.5142 30.8581 66.0633 31.1867C63.0593 33.0423 60.7963 29.1006 58.0106 30.5368C57.6189 30.8151 57.3357 31.5913 57.793 31.8359C61.2315 33.4597 65.0624 32.2997 68.4574 31.2795C68.849 31.1404 69.3284 30.723 69.3712 30.3056C69.2407 28.8211 67.674 28.4971 66.6725 28.0798C63.7127 27.2914 60.4482 27.2914 57.2701 26.9668C56.6609 26.8277 55.8845 26.3754 55.7035 25.8539C55.3554 24.7409 55.3554 23.21 56.1387 22.2825C60.1865 18.4786 66.3237 18.8039 71.4601 19.8241C71.8089 19.9605 72.2005 20.0996 72.3317 20.517ZM53.31 22.2798C53.7017 26.7323 53.9193 30.8614 53.8322 35.5458C53.7452 36.1479 53.0924 36.2877 52.6573 36.5196C51.961 36.6587 51.061 36.5008 50.7854 36.1022C49.7845 34.3851 50.1326 32.0671 50.0456 29.9797C50.1761 26.6872 50.1326 23.1152 51.0036 20.0533C51.1701 19.6084 51.6563 19.2186 52.048 19.4961C53.0924 20.0533 53.2665 21.1669 53.31 22.2798ZM101.672 21.6306C101.881 22.0056 102.1 22.5849 101.672 22.8363C99.7126 23.7637 97.058 23.3464 94.7938 23.6246C94.1846 24.1811 93.7053 25.1086 93.9222 25.9439C94.1411 26.083 94.336 26.2947 94.5762 26.2679C95.9682 26.3613 98.0583 25.5723 98.9734 26.9635C99.1967 27.3775 98.9432 28.9232 98.3207 28.9582C96.6222 29.1914 93.8295 28.731 93.009 29.1914C91.9646 29.9333 92.051 31.3709 91.6593 32.5315C92.3997 33.0416 93.1749 32.5194 94.0528 32.3917C95.6648 32.1135 97.4497 31.6034 99.0592 31.9744C99.3638 32.5772 99.7996 33.2271 99.4944 33.9691C96.7503 36.2884 93.2108 38.6655 89.4399 36.984C88.0246 36.3079 87.3939 34.0155 87.8732 32.0685C88.1772 30.6766 89.5263 29.3318 88.7001 27.8472C88.5695 27.1973 88.9183 26.6415 89.4405 26.5024C90.8766 26.5024 90.5714 24.6005 91.3118 23.7187C90.485 22.7449 88.3961 22.7913 88.6137 20.8429C89.6152 20.2865 90.8343 20.472 91.9645 20.2865C94.5327 19.7293 97.4055 19.4047 100.019 19.7293C100.539 19.8409 101.236 20.935 101.672 21.6306ZM39.5111 11.055C43.528 14.5537 48.7394 20.5177 48.0866 27.3822C47.3027 32.8098 41.9052 36.8912 37.3346 38.1903C32.8945 39.5815 27.323 39.4424 22.7952 38.3295C22.4906 39.2112 22.186 40.2771 21.2286 40.6488C20.6193 40.8806 19.8354 40.7415 19.3567 40.3242C18.0076 38.9787 19.0956 36.3811 17.1366 35.5471C13.3058 33.8306 9.17037 30.4441 7.21207 26.2699C6.95096 25.4352 7.25558 24.6005 7.73428 23.9513C10.7383 21.4001 14.5249 20.3799 18.3123 19.5909C18.5298 19.6836 18.4428 19.359 18.6169 19.2663C18.8345 16.4832 18.9215 13.6532 19.7483 11.1484C19.9369 10.7969 20.4011 10.6846 20.7064 10.9165C23.1005 12.8642 21.9684 16.5296 23.0134 19.1729C27.5841 19.4047 32.1547 19.6366 35.7673 22.3739C36.9864 23.4405 37.2835 25.4775 36.8988 26.6415C36.5147 27.8035 35.2451 28.6362 34.0695 28.7276C33.2855 28.7276 31.8059 28.809 31.893 28.1718C31.98 27.534 34.5557 26.4903 33.7649 25.62C32.6277 24.3693 26.9382 23.6253 23.412 23.1616C22.9769 23.0688 22.5776 23.2079 22.5776 23.718C22.4906 27.243 22.2295 31.139 22.7952 34.5262C22.8387 34.7588 23.0998 35.037 23.3181 35.082C29.5424 36.1493 36.1155 35.5458 40.9907 31.7425C43.2543 29.7955 43.9947 27.0569 43.6024 24.0427C41.6435 15.6472 33.4167 10.5906 26.6696 7.3438C20.0971 4.28253 12.8271 2.70519 5.03554 3.12322C3.79497 3.22 1.8291 3.67633 1.8146 4.14409C1.80009 4.61184 4.04157 4.46466 3.7729 5.34977C3.50485 6.23421 1.22679 5.70933 0.55195 5.48889C-0.122892 5.26845 -0.0572995 4.23616 0.116772 3.58694C1.8146 0.386559 6.55236 0.127814 8.6923 0.0155785C20.5317 -0.309702 31.9806 4.49491 39.5111 11.055ZM18.1817 23.4862C15.1777 23.5326 12.0003 23.8572 9.21451 24.9701C8.64878 25.202 7.95187 25.8512 8.38704 26.6402C9.51851 28.2632 11.1369 29.5959 12.6531 30.5362C14.1692 31.475 16.1793 32.67 18.0076 32.9489C18.4428 29.9333 18.4428 26.9648 18.3993 23.8572C18.2246 23.7644 18.3987 23.5789 18.1817 23.4862ZM108.156 19.2649C108.026 23.3 104.499 25.8055 104.499 29.8406C104.629 29.9797 104.718 30.1652 104.891 30.0738C107.721 26.78 110.506 22.095 114.642 20.7038C115.732 20.6111 116.716 21.6199 117.124 22.3739C118.56 25.4352 118.213 29.7492 116.21 32.5322C114.143 35.2642 110.55 38.0055 106.46 37.5411C104.763 41.9942 103.586 46.6792 102.933 51.5497C102.585 52.5235 101.759 51.6424 101.236 51.4569C97.7108 48.4884 100.606 40.6299 100.845 39.6272C101.084 38.6272 102.027 36.2682 102.717 34.293C101.063 31.1397 102.107 27.3351 103.456 24.413C104.501 22.4646 105.939 20.5163 107.636 19.0324C107.852 19.0331 108.026 19.0794 108.156 19.2649ZM115.166 24.2745C114.644 24.1818 114.425 24.9244 113.991 25.0635C111.989 27.4756 109.986 29.8876 108.984 32.7634C110.335 32.9489 111.466 32.0214 112.642 31.5113C114.644 30.1659 115.906 27.9406 115.776 25.3888C115.688 24.9701 115.34 24.6455 115.166 24.2745Z" fill="white"/>
</svg>
