<svg width="35" height="35" viewBox="0 0 35 35" fill="none" xmlns="http://www.w3.org/2000/svg">
<path d="M0 26.2829V1.8398C0 1.43096 0.189583 1.02211 0.56875 0.613266C0.947917 0.204422 1.34167 0 1.75 0H24.4563C24.8938 0 25.3021 0.197122 25.6812 0.591364C26.0604 0.985607 26.25 1.40175 26.25 1.8398V17.4343C26.25 17.8431 26.0604 18.252 25.6812 18.6608C25.3021 19.0697 24.8938 19.2741 24.4563 19.2741H7L0 26.2829ZM8.79375 28.035C8.38542 28.035 7.98438 27.8306 7.59063 27.4218C7.19688 27.0129 7 26.6041 7 26.1952V21.9024H28.875V7.00876H33.25C33.6583 7.00876 34.0521 7.21318 34.4312 7.62203C34.8104 8.03087 35 8.45432 35 8.89237V35L28.0437 28.035H8.79375Z" fill="#991313"/>
</svg>
