<svg width="35" height="35" viewBox="0 0 35 35" fill="none" xmlns="http://www.w3.org/2000/svg">
<path d="M26.7083 35H7.25V12.6L18.8333 0L20.2083 1.1375C20.5139 1.37083 20.7153 1.63333 20.8125 1.925C20.9097 2.21667 20.9583 2.55208 20.9583 2.93125V3.36875L19.0833 12.6H32.5C33.1389 12.6 33.7153 12.8698 34.2292 13.4094C34.7431 13.949 35 14.5542 35 15.225V18.8125C35 19.1333 34.9653 19.5052 34.8958 19.9281C34.8264 20.351 34.7222 20.7229 34.5833 21.0437L29.75 32.7688C29.5 33.3813 29.0903 33.9062 28.5208 34.3438C27.9514 34.7812 27.3472 35 26.7083 35ZM4.75 12.6V35H0V12.6H4.75Z" fill="#269913"/>
</svg>
