<svg width="35" height="23" viewBox="0 0 35 23" fill="none" xmlns="http://www.w3.org/2000/svg">
<path d="M17.5 17.7333C19.3826 17.7333 20.9801 17.1283 22.2926 15.9183C23.6051 14.7083 24.2614 13.2356 24.2614 11.5C24.2614 9.76444 23.6051 8.29167 22.2926 7.08167C20.9801 5.87167 19.3826 5.26667 17.5 5.26667C15.6174 5.26667 14.0199 5.87167 12.7074 7.08167C11.3949 8.29167 10.7386 9.76444 10.7386 11.5C10.7386 13.2356 11.3949 14.7083 12.7074 15.9183C14.0199 17.1283 15.6174 17.7333 17.5 17.7333ZM17.5 15.6067C16.2538 15.6067 15.1998 15.2094 14.3381 14.415C13.4763 13.6206 13.0455 12.6489 13.0455 11.5C13.0455 10.3511 13.4763 9.37944 14.3381 8.585C15.1998 7.79056 16.2538 7.39333 17.5 7.39333C18.7462 7.39333 19.8002 7.79056 20.6619 8.585C21.5237 9.37944 21.9545 10.3511 21.9545 11.5C21.9545 12.6489 21.5237 13.6206 20.6619 14.415C19.8002 15.2094 18.7462 15.6067 17.5 15.6067ZM17.5 22.5C13.6288 22.5 10.1288 21.4856 7 19.4567C3.87121 17.4278 1.53788 14.7756 0 11.5C1.53788 8.22444 3.87121 5.57222 7 3.54333C10.1288 1.51444 13.6288 0.5 17.5 0.5C21.3712 0.5 24.8712 1.51444 28 3.54333C31.1288 5.57222 33.4621 8.22444 35 11.5C33.4621 14.7756 31.1288 17.4278 28 19.4567C24.8712 21.4856 21.3712 22.5 17.5 22.5Z" fill="#134999"/>
</svg>
