<svg width="32" height="31" viewBox="0 0 32 31" fill="none" xmlns="http://www.w3.org/2000/svg">
<path d="M16 14.9502C13.8333 14.9502 12.0667 14.2752 10.7 12.9252C9.33333 11.5752 8.65 9.8002 8.65 7.6002C8.65 5.4002 9.325 3.61686 10.675 2.2502C12.025 0.883529 13.8 0.200195 16 0.200195C18.2 0.200195 19.9833 0.883529 21.35 2.2502C22.7167 3.61686 23.4 5.4002 23.4 7.6002C23.4 9.76686 22.7167 11.5335 21.35 12.9002C19.9833 14.2669 18.2 14.9502 16 14.9502ZM3.1 30.6502C2.3 30.6502 1.625 30.3752 1.075 29.8252C0.525 29.2752 0.25 28.6002 0.25 27.8002V26.1002C0.25 24.8669 0.558334 23.8085 1.175 22.9252C1.79167 22.0419 2.6 21.3669 3.6 20.9002C5.8 19.9335 7.90833 19.2002 9.925 18.7002C11.9417 18.2002 13.9667 17.9502 16 17.9502C18.0333 17.9502 20.05 18.2002 22.05 18.7002C24.05 19.2002 26.15 19.9335 28.35 20.9002C29.3833 21.3669 30.2167 22.0419 30.85 22.9252C31.4833 23.8085 31.8 24.8669 31.8 26.1002V27.8002C31.8 28.6002 31.5167 29.2752 30.95 29.8252C30.3833 30.3752 29.7 30.6502 28.9 30.6502H3.1Z" fill="white"/>
</svg>
