<svg width="46" height="48" viewBox="0 0 46 48" fill="none" xmlns="http://www.w3.org/2000/svg">
<path d="M22.5038 2.08213C22.2813 2.80576 21.9067 4.04798 21.6619 4.84397C21.4208 5.63996 20.7976 7.69426 20.2783 9.40685C19.7553 11.1194 18.917 13.8853 18.4126 15.5456L17.4927 18.5728H8.74634C3.93548 18.5728 0 18.5849 0 18.6009C0 18.621 0.630568 19.1236 1.40209 19.7226C2.16989 20.3216 5.32273 22.7698 8.40139 25.1618C11.4837 27.5578 14.032 29.5478 14.0691 29.584C14.1433 29.6604 14.2731 29.2061 12.5112 34.9951C11.8176 37.2866 11.2352 39.2042 10.1818 42.6736C9.65881 44.3983 9.12098 46.1671 8.98744 46.6053C8.85391 47.0435 8.75376 47.4134 8.76489 47.4255C8.79085 47.4496 7.88951 48.1491 15.8569 41.95C19.6107 39.0314 22.7375 36.5992 22.8006 36.5509L22.923 36.4585L25.7494 38.6615C34.8259 45.7289 37.0737 47.4697 37.0848 47.4576C37.0922 47.4496 36.9142 46.8425 36.6916 46.1028C36.4654 45.3671 35.8904 43.4696 35.4082 41.8897C33.5128 35.6343 32.7673 33.174 32.4 31.9599C31.8622 30.191 31.7138 29.6966 31.7138 29.6483C31.7138 29.6242 34.8852 27.1438 38.7614 24.1287C42.6375 21.1135 45.8089 18.6291 45.8089 18.609C45.8089 18.5889 42.4372 18.5688 37.0662 18.5648L28.3273 18.5527L27.719 16.5426C27.3852 15.4371 26.7101 13.222 26.2242 11.6179C25.7383 10.0139 24.8036 6.93043 24.147 4.76357C23.4905 2.59671 22.9415 0.811756 22.9267 0.795677C22.9119 0.775574 22.7227 1.35448 22.5038 2.08213Z" fill="#FFE600"/>
</svg>
